# xmcd
#
# Track frame offsets:
#	182
#	22215
#	41295
#	59987
#	81175
#	101022
#	123872
#	143890
#	166362
#	188387
#
# Disc length: 2775 seconds
#
# Revision: 1
# Processed by: cddbd v1.4PL0 Copyright (c) Steve Scherf et al.
# Submitted via: EasyCDDAExtractor 6.0.0.1
#
DISCID=850ad50a
DTITLE=신승훈 - 1집 미소속에 비친 그대
DYEAR=1991
DGENRE=Ballad
TTITLE0=미소속에 비친 그대
TTITLE1=두번째의 사랑
TTITLE2=오늘같이 이런 창밖이 좋아
TTITLE3=그댈 사랑해
TTITLE4=돌아봐줘
TTITLE5=그대의 마음은
TTITLE6=그리워라
TTITLE7=그대여 안녕
TTITLE8=미소속에 비친 그대
TTITLE9=돌아봐줘
EXTD=
EXTT0=
EXTT1=
EXTT2=
EXTT3=
EXTT4=
EXTT5=
EXTT6=
EXTT7=
EXTT8=
EXTT9=
PLAYORDER=
